<?xml version="1.0" encoding="utf-8"?>
<!-- Svg Vector Icons : http://www.onlinewebfonts.com/icon -->
<!DOCTYPE svg PUBLIC "-//W3C//DTD SVG 1.1//EN" "http://www.w3.org/Graphics/SVG/1.1/DTD/svg11.dtd">
<svg version="1.1" xmlns="http://www.w3.org/2000/svg" xmlns:xlink="http://www.w3.org/1999/xlink" x="0px" y="0px" viewBox="0 0 256 256" enable-background="new 0 0 256 256" xml:space="preserve">
<metadata> Svg Vector Icons : http://www.onlinewebfonts.com/icon </metadata>
<g><g><g><path fill="#000000" d="M70.2,42.9c-0.9,1-0.9,2.3-1.2,25.3l-0.2,24.3L47.5,78.8c-23-14.7-23.4-14.9-25.4-12.4c-1,1.3-1,1.4-0.7,23.9l0.3,22.6l-5.9,10.6c-5.6,10.1-5.9,10.8-5.4,12.1c0.8,1.9,2.4,2.5,6.8,2.5h3.9v11.9V162l-5.6,10.1c-3.1,5.5-5.6,10.5-5.6,11c0,0.5,0.4,1.4,0.9,2.1c0.8,1,1.4,1.2,5.3,1.3l4.4,0.2v13.7v13.7h107.1h107.1v-13.7v-13.7l4.6-0.2c4.2-0.1,4.7-0.2,5.6-1.3c0.5-0.6,0.9-1.5,0.9-2.1c0-0.5-2.5-5.5-5.6-11l-5.6-10.1v-11.9v-11.9h4.4c4.8,0,6.3-0.7,6.3-3.2c0-0.7-2.5-5.8-5.7-11.5l-5.6-10.2l0.3-23.3c0.3-23.2,0.3-23.3-0.7-24.6c-0.7-0.9-1.5-1.3-2.4-1.3c-0.9,0-8,4.3-23,13.8c-11.8,7.6-21.7,13.8-21.8,13.8s-0.2-10.7-0.2-23.8V44l-1.1-1c-1.1-1.1-1.4-1.1-16.1-1.1c-12.2,0-15.2,0.1-16,0.7c-0.9,0.6-0.9,1.5-1.2,13.7l-0.2,13l-24,0.1l-24,0.1l-0.1-12.9c-0.1-12.9-0.1-12.9-1.3-13.8c-1.1-0.9-2.1-0.9-16.3-0.9C71.5,41.9,71.1,42,70.2,42.9z M96.6,52.1v3.4H86.2H75.8v-3.4v-3.4h10.4h10.4V52.1z M179.7,52.1v3.4h-10.4h-10.4v-3.4v-3.4h10.4h10.4V52.1z M96.6,134.8v72.5H86.2H75.8l0-72.5V62.2h10.3h10.4V134.8z M179.7,135v72.3h-10.4h-10.4V135V62.7h10.4h10.4V135z M227.6,92.2v17.9h-20.3H187l0.1-5.1l0.1-5l19.8-12.8c10.9-7,20-12.8,20.2-12.8C227.5,74.3,227.6,82.4,227.6,92.2z M49,88.2L69,101v4.8v4.8H48.7H28.4V92.9c0-9.7,0.1-17.7,0.3-17.7C28.8,75.3,38,81.1,49,88.2z M152.1,141.6l0.1,65.2H128h-24.2v-65.3V76.3l24.1,0.1l24,0.1L152.1,141.6z M29.3,118.2c0,0.2-1.5,3.1-3.2,6.4c-3,5.7-3.3,6-4.8,6.2c-0.9,0.1-1.6,0-1.6-0.1s0.7-1.5,1.6-3c0.9-1.5,2.5-4.4,3.6-6.3c1.6-2.8,2.2-3.5,3.2-3.5C28.8,117.8,29.3,118,29.3,118.2z M39.5,118.1c0,0.2-1.5,3.1-3.2,6.5c-3,5.8-3.4,6.2-4.6,6.2h-1.4l2.8-5.2c4.2-7.8,4.2-7.8,5.4-7.8C39,117.8,39.5,118,39.5,118.1z M49.7,118.2c0,0.2-1.5,3.1-3.3,6.4c-2.9,5.3-3.5,6-4.6,6.2l-1.4,0.2l1-1.6c0.5-0.9,2-3.6,3.3-5.9c1.3-2.4,2.5-4.6,2.8-5C47.9,117.8,49.7,117.6,49.7,118.2z M59.7,118.5c-0.1,0.4-1.5,3.3-3.3,6.5c-2.6,4.8-3.3,5.9-4.2,5.9c-0.6,0-1.1-0.1-1.1-0.3c0-0.2,1.5-3.1,3.4-6.5c2.6-4.8,3.6-6.2,4.4-6.2C59.5,117.8,59.8,118.1,59.7,118.5z M69,119.6c0,1.3-0.7,3.3-2.5,6.8c-2.3,4.5-2.7,5-3.9,5c-0.8,0-1.4-0.1-1.4-0.3c0-0.7,6.9-13.3,7.3-13.3C68.8,117.8,69,118.7,69,119.6z M191.8,124.4c1.9,3.6,3.4,6.6,3.4,6.8s-0.5,0.2-1.1,0.2c-0.9,0-1.7-1.1-4.1-5.6c-1.7-3.1-3-6.1-3-6.8C187,116.4,188.5,118.1,191.8,124.4z M199.5,119.4c0.5,0.9,2.2,3.9,3.7,6.8c2.8,5.1,2.8,5.2,1.6,5.2c-1.2,0-1.3,0-8.4-13.2c-0.1-0.2,0.3-0.3,1-0.3C198.2,117.8,198.8,118.3,199.5,119.4z M212.5,124.6c3.4,6.6,3.5,6.8,2.3,6.8c-1,0-1.6-0.8-4.6-6.5c-1.9-3.6-3.4-6.6-3.4-6.8s0.5-0.2,1.1-0.2C208.8,117.8,209.6,119,212.5,124.6z M222.7,124.4c1.9,3.6,3.4,6.7,3.4,6.8c0,0.1-0.5,0.2-1.1,0.2c-0.9,0-1.7-1.1-4.6-6.5c-1.9-3.6-3.5-6.6-3.5-6.8s0.5-0.3,1.2-0.3C219.2,117.8,219.8,118.7,222.7,124.4z M232.6,124.5c3,5.2,3.6,6.7,3,6.8c-1.2,0.2-1.6-0.4-5.2-7.3c-2.7-5.1-3.1-6.1-2.4-6.1C228.6,117.8,229.9,119.8,232.6,124.5z M69,148.8V159h-3.4h-3.4v-5.5c0-4.8-0.1-5.7-1-6.8l-1-1.3h-8.4c-10.8,0-10.4-0.3-10.4,7.8v5.7h-6.5h-6.5v-10.2v-10.2h20.3H69V148.8z M227.6,148.8V159h-6.8h-6.8v-6c0-8.5,0.3-8.2-9.4-8.4c-8.3-0.2-9.9,0.1-10.8,2.1c-0.3,0.7-0.5,3.7-0.5,6.7v5.6h-3.1H187v-10.2v-10.2h20.3h20.3L227.6,148.8L227.6,148.8z M207.3,154.8v3.1h-3.4h-3.4v-3.1v-3.1h3.4h3.4V154.8z M55.5,155.3v3.1h-3.6h-3.6v-3.1v-3.1h3.6h3.6V155.3z M29.7,166.1c0,0.2-1.6,3.3-3.5,6.8c-3.3,6.2-3.4,6.4-5,6.4c-0.9,0-1.6-0.1-1.6-0.2c0-0.2,5.6-10.6,6.6-12.2c0.5-0.7,1.2-1.1,2.2-1.1C29.2,165.7,29.8,165.9,29.7,166.1z M40,166.1c0,0.2-1.5,3.2-3.3,6.7c-2.9,5.5-3.5,6.3-4.6,6.4c-0.7,0.1-1.3,0-1.2-0.2c0.1-0.2,1.7-3.3,3.5-6.8c2.8-5.5,3.4-6.4,4.5-6.4C39.5,165.7,40,165.9,40,166.1z M49.7,166.3c0,0.3-1.5,3.3-3.2,6.8c-2.8,5.2-3.5,6.2-4.4,6.2c-1.1,0-0.9-0.3,2.1-6.2c1.8-3.4,3.4-6.4,3.7-6.8C48.4,165.6,49.7,165.5,49.7,166.3z M60.3,166c0,0.1-1.5,3.1-3.4,6.8c-3,5.7-3.6,6.5-4.6,6.5c-1.2,0-1.1-0.1,2-6.2c1.8-3.4,3.5-6.4,3.7-6.8C58.5,165.8,60.3,165.4,60.3,166z M191.2,171.2c1.5,2.7,3.1,5.7,3.7,6.5l1,1.6h-1.4c-1.3,0-1.6-0.5-4.4-5.9c-2.1-4-3-6.2-2.8-6.8C187.6,165.2,188.2,165.8,191.2,171.2z M199.2,166.8c0.4,0.6,2,3.7,3.7,6.8c2.9,5.7,2.9,5.7,1.7,5.6c-1.1-0.1-1.8-1.1-4.6-6.2c-1.8-3.3-3.3-6.3-3.3-6.7C196.7,165.3,198.6,165.7,199.2,166.8z M212.2,172.3c1.8,3.4,3.3,6.4,3.3,6.6c0,0.2-0.4,0.4-0.9,0.4c-0.7,0-1.7-1.6-4.2-6.4c-1.8-3.5-3.4-6.6-3.5-6.8c-0.1-0.2,0.3-0.3,1-0.2C208.7,165.9,209.6,167.2,212.2,172.3z M219.3,166.3c0.3,0.3,1.9,3.4,3.7,6.8c3.2,6,3.2,6.2,2.1,6.2c-1.1,0-1.6-0.8-4.6-6.5c-1.9-3.6-3.4-6.7-3.4-6.8C217,165.4,218.8,165.8,219.3,166.3z M232.8,172.3c1.9,3.5,3.5,6.4,3.5,6.6c0,0.2-0.4,0.4-1,0.4c-0.9,0-1.7-1.1-4.4-6.2c-1.8-3.4-3.3-6.5-3.3-6.8c0-0.3,0.4-0.5,0.9-0.4C229,165.9,230.7,168.5,232.8,172.3z M69,168.2c0,1.4-0.7,3.1-2.5,6.5c-2.3,4.2-2.6,4.5-3.9,4.5h-1.4L64,174C68.8,165,69,164.8,69,168.2z M69,196.9v10.4h-3.4h-3.4v-5.8c0-8.1,0.5-7.7-10.3-7.7c-7.4,0-8.5,0.1-9.2,0.9c-0.6,0.7-0.8,2.1-0.9,6.6l-0.1,5.8l-6.9,0.1l-6.9,0.1v-10.4v-10.4h20.6H69V196.9z M227.6,196.9v10.4h-6.8h-6.8v-6c0-8.5,0.3-8.2-9.4-8.4c-8.3-0.2-9.9,0.1-10.8,2.1c-0.3,0.7-0.5,3.7-0.5,6.7v5.6h-3.4h-3.4v-10.4v-10.4h20.6h20.6V196.9z M207.3,203.2v3.1h-3.4h-3.4v-3.1v-3.1h3.4h3.4V203.2z M55.5,203.7v3.1h-3.4h-3.4v-3.1v-3.1h3.4h3.4V203.7z"/><path fill="#000000" d="M118.6,91.3c-0.6,0.9-0.8,2.6-0.8,9.1v8.1l1.3,1c1.2,0.9,1.9,1,8.7,1c4.6,0,7.9-0.2,8.7-0.6c1.8-0.8,2.3-3.1,2.1-10.8c-0.2-9.4,0.4-8.9-10.6-8.9C119.6,90.3,119.3,90.3,118.6,91.3z M131.4,100.4v3.4l-3.2-0.1l-3.3-0.1l-0.1-3.3l-0.1-3.2h3.4h3.4V100.4z"/><path fill="#000000" d="M118.8,132.4c-0.9,0.9-1,1.6-1,9.2c0,10.8-0.7,10.2,10.2,10.2c11,0,10.3,0.7,10.3-10.2s0.7-10.2-10.4-10.2C120.4,131.4,119.7,131.5,118.8,132.4z M131.4,141.5v3.4H128h-3.4v-3.4v-3.4h3.4h3.4V141.5z"/><path fill="#000000" d="M118.9,173.6c-1,1.1-1.1,1.5-1.1,9.4v8.3l1.3,1c1.2,0.9,1.9,1,9,1c4.3,0,8.1-0.2,8.6-0.5c0.5-0.2,1.1-1.2,1.4-2c0.7-2,0.7-13.8,0-15.8c-0.8-2.2-2.1-2.6-10.6-2.6C120.2,172.5,119.9,172.5,118.9,173.6z M131.4,182.9v3.6H128h-3.4v-3.6v-3.6h3.4h3.4V182.9z"/></g></g></g>
</svg>